<svg xmlns="http://www.w3.org/2000/svg" width="129.5" height="129.5" viewBox="0 0 129.5 129.5">
  <g id="Group_1421" data-name="Group 1421" transform="translate(-246 -25)">
    <path id="Path_692" data-name="Path 692" d="M47.222,211.149c.986-7.588-4.477-14.873-12.368-15.176a13.253,13.253,0,0,0-13.506,15.176H0v53.368A11.367,11.367,0,0,0,11.382,275.9H68.544v-64.75Z" transform="translate(246 -121.399)" fill="#b2d1ff"/>
    <path id="Path_693" data-name="Path 693" d="M211.185,256v17.321a13.176,13.176,0,0,0-15.165,13.49c.251,7.694,7.369,13.338,15.165,12.4V320.75h53.368a11.382,11.382,0,0,0,11.382-11.382V256Z" transform="translate(99.565 -166.25)" fill="#73aafc"/>
    <path id="Path_694" data-name="Path 694" d="M309.544,64.755V11.387A11.382,11.382,0,0,0,298.162.005H241v64.75h21.115A13.187,13.187,0,0,0,275.6,79.92c7.856-.256,13.358-7.6,12.4-15.165Z" transform="translate(65.956 24.996)" fill="#4385e5"/>
    <path id="Path_695" data-name="Path 695" d="M79.926,31.06c-.228,7.664-7.36,13.355-15.176,12.368V64.75H47.222c.986-7.588-4.477-14.873-12.368-15.176A13.253,13.253,0,0,0,21.348,64.75H0V11.382A11.366,11.366,0,0,1,11.382,0H64.75V17.553A13.206,13.206,0,0,1,79.926,31.06Z" transform="translate(246 25)" fill="#1866d9"/>
  </g>
</svg>
