<svg width="1114" height="594" viewBox="0 0 1114 594" fill="none" xmlns="http://www.w3.org/2000/svg">
<g clip-path="url(#clip0)">
<path opacity="0.1" d="M557 593.541C864.623 593.541 1114 515.74 1114 419.766C1114 323.792 864.623 245.99 557 245.99C249.377 245.99 0 323.792 0 419.766C0 515.74 249.377 593.541 557 593.541Z" fill="#EB171D"/>
<g opacity="0.8">
<path opacity="0.8" d="M404.792 35.3814C414.235 48.6231 421.479 87.1871 423.498 98.8077L440.377 98.4633C439.504 88.4798 419.868 47.8719 414.409 36.7298C411.372 36.2536 408.13 35.7885 404.792 35.3814Z" fill="#65617D"/>
<path opacity="0.8" d="M194.131 26.7657L193.932 37.2974L201.409 37.4386L201.608 26.907L194.131 26.7657Z" fill="#DCE0ED"/>
<path opacity="0.1" d="M194.131 26.7658L194.067 30.1949C194.592 30.3558 195.138 30.44 195.687 30.4449L201.54 30.5056L201.608 26.907L194.131 26.7658Z" fill="black"/>
<path opacity="0.8" d="M205.271 0.134827L198.212 0.0015114C196.526 -0.0300056 194.869 0.442179 193.454 1.35767C192.038 2.27315 190.927 3.5903 190.264 5.14055C188.1 10.1903 186.198 18.2493 190.644 26.4065C191.141 27.3179 191.872 28.0802 192.762 28.615C193.651 29.1498 194.667 29.4376 195.705 29.4487L204.716 29.5417L205.271 0.134827Z" fill="#DCE0ED"/>
<path opacity="0.8" d="M212.553 14.9811C212.706 6.86057 209.446 0.213681 205.271 0.134831C201.096 0.0559807 197.587 6.57502 197.434 14.6955C197.281 22.816 200.541 29.4629 204.716 29.5418C208.891 29.6206 212.4 23.1016 212.553 14.9811Z" fill="#F0F0F4"/>
<path opacity="0.8" d="M260.544 28.1447L260.37 37.3655L267.846 37.5067L268.02 28.2859L260.544 28.1447Z" fill="#DCE0ED"/>
<path opacity="0.1" d="M260.544 28.1447L260.489 31.0754C261.014 31.2363 261.56 31.3205 262.109 31.3254L267.962 31.3861L268.02 28.2859L260.544 28.1447Z" fill="black"/>
<path opacity="0.8" d="M271.684 1.51379L264.625 1.38048C262.939 1.34896 261.282 1.82116 259.866 2.73665C258.45 3.65214 257.339 4.96928 256.676 6.51953C254.513 11.5693 252.61 19.6283 257.057 27.7855C257.554 28.6968 258.285 29.4592 259.174 29.994C260.064 30.5287 261.08 30.8165 262.118 30.8277L271.128 30.9207L271.684 1.51379Z" fill="#DCE0ED"/>
<path opacity="0.8" d="M278.964 16.36C279.117 8.23952 275.857 1.59266 271.682 1.51383C267.507 1.43499 263.999 7.95403 263.845 16.0745C263.692 24.195 266.952 30.8419 271.127 30.9207C275.302 30.9995 278.811 24.4805 278.964 16.36Z" fill="#F0F0F4"/>
<path opacity="0.8" d="M269.696 6.85272C269.696 6.85272 272.476 7.35154 270.956 11.0049C270.153 12.7792 269.556 14.6398 269.178 16.5503C269.178 16.5503 266.362 17.9476 266.564 13.1535C266.766 8.35947 269.696 6.85272 269.696 6.85272Z" fill="#DCE0ED"/>
<path opacity="0.8" d="M593.167 223.147C593.671 196.446 574.331 174.427 549.97 173.967C525.608 173.507 505.45 194.78 504.946 221.481C504.442 248.182 523.782 270.201 548.143 270.661C572.505 271.121 592.663 249.848 593.167 223.147Z" fill="#636780"/>
<path opacity="0.1" d="M533.384 176.671C556.439 178.659 574.326 200.012 573.841 225.703C573.45 246.412 561.236 263.852 544.408 270.424C521.354 268.436 503.467 247.083 503.952 221.392C504.343 200.683 516.557 183.243 533.384 176.671Z" fill="black"/>
<path opacity="0.8" d="M241.615 110.804C242.102 85.0205 226.467 63.8159 206.693 63.4424C186.92 63.069 170.495 83.6681 170.008 109.452C169.521 135.236 185.156 156.44 204.93 156.814C224.703 157.187 241.128 136.588 241.615 110.804Z" fill="#636780"/>
<path opacity="0.1" d="M216.663 65.5869C231.405 71.558 241.909 89.6621 241.508 110.866C241.08 133.526 228.342 152.178 211.84 156.113C197.099 150.142 186.595 132.038 186.995 110.834C187.423 88.1742 200.161 69.5216 216.663 65.5869Z" fill="black"/>
<path opacity="0.8" d="M340.491 102.7L340.146 85.7407C340.146 85.7407 343.607 78.4933 346.943 77.8915C350.278 77.2897 357.928 77.0186 357.928 77.0186C357.928 77.0186 363.45 101.471 359.324 108.706C355.199 115.941 340.491 102.7 340.491 102.7Z" fill="#65617D"/>
<path opacity="0.1" d="M340.491 102.7L340.146 85.7407C340.146 85.7407 343.607 78.4933 346.943 77.8915C350.278 77.2897 357.928 77.0186 357.928 77.0186C357.928 77.0186 363.45 101.471 359.324 108.706C355.199 115.941 340.491 102.7 340.491 102.7Z" fill="black"/>
<path opacity="0.8" d="M401.831 102.03C401.831 102.03 404.335 78.5709 391.427 77.9041C389.766 77.8183 388.106 77.747 386.454 77.5555C377.519 76.5198 353.145 74.1754 355.964 79.8069C355.964 79.8069 361.393 100.352 357.309 105.427L401.831 102.03Z" fill="#65617D"/>
<path opacity="0.8" d="M218.004 142.144L200.675 142.315C200.675 142.315 198.287 110.36 197.337 107.849C196.387 105.338 196.114 93.3664 199.387 91.6831C202.66 89.9998 213.541 88.0862 213.541 88.0862L221.172 106.429L221.484 122.889L218.004 142.144Z" fill="#65617D"/>
<path opacity="0.1" d="M218.004 142.144L200.675 142.315C200.675 142.315 198.287 110.36 197.337 107.849C196.387 105.338 196.114 93.3664 199.387 91.6831C202.66 89.9998 213.541 88.0862 213.541 88.0862L221.172 106.429L221.484 122.889L218.004 142.144Z" fill="black"/>
<path opacity="0.8" d="M260.872 89.9774L261.016 86.4264C261.028 86.1464 260.981 85.867 260.881 85.6056C260.78 85.3441 260.626 85.1062 260.43 84.9063C260.234 84.7065 259.998 84.5491 259.739 84.4438C259.479 84.3385 259.2 84.2875 258.92 84.2941C250.329 84.4942 219.064 85.4005 213.541 88.0862C213.541 88.0862 218.682 132.683 211.877 143.15L213.447 178.83L290.063 174.543L260.872 89.9774Z" fill="#65617D"/>
<path opacity="0.1" d="M267.914 33.9131C265.795 33.6637 263.272 33.3867 260.45 33.114L260.37 37.3655L267.846 37.5067L267.914 33.9131Z" fill="black"/>
<path opacity="0.1" d="M193.943 36.7591L193.933 37.2975L201.409 37.4386L201.47 34.2039C198.864 34.7388 196.336 35.5972 193.943 36.7591V36.7591Z" fill="black"/>
<path opacity="0.8" d="M154.434 142.065L165.73 142.443L189.878 100.458L193.909 93.449L191.257 75.45L188.878 79.753L154.434 142.065Z" fill="#DCE0ED"/>
<path opacity="0.8" d="M257.596 91.825L262.115 98.891L276.376 80.353L282.903 71.86L279.178 66.64L276.185 70.133L257.596 91.825Z" fill="#DCE0ED"/>
<path opacity="0.1" d="M276.185 70.1331C276.158 70.4916 276.131 70.86 276.099 71.2334L276.376 80.353L282.903 71.8605L279.178 66.6396L276.185 70.1331Z" fill="black"/>
<path opacity="0.1" d="M188.878 79.753L189.878 100.458L193.909 93.449L191.257 75.45L188.878 79.753Z" fill="black"/>
<path opacity="0.8" d="M289.163 83.6144C289.163 83.6144 295.528 42.0495 275.338 35.4356C275.079 35.3523 274.813 35.2923 274.543 35.2562C269.88 34.6038 226.406 28.7576 203.67 34.3002C203.67 34.3002 188.175 36.3344 188.185 44.6446L193.079 146.285L204.211 146.496L201.823 79.3055C201.823 79.3055 197.059 49.9643 205.902 48.137C214.745 46.3096 254.848 43.743 268.894 47.9971C268.894 47.9971 279.239 45.8656 277.098 71.2538L277.505 84.8899L289.163 83.6144Z" fill="#DCE0ED"/>
<path opacity="0.8" d="M255.036 95.3518C254.964 94.2503 255.177 93.1489 255.655 92.1536C256.132 91.1583 256.857 90.3028 257.761 89.6693C260.921 87.3607 270.612 82.433 270.612 82.433L273.723 82.7411L282.631 106.094L281.078 155.302L263.863 175.793L255.036 95.3518Z" fill="#65617D"/>
<path opacity="0.1" d="M255.036 95.3518C254.964 94.2503 255.177 93.1489 255.655 92.1536C256.132 91.1583 256.857 90.3028 257.761 89.6693C260.921 87.3607 270.612 82.433 270.612 82.433L273.723 82.7411L282.631 106.094L281.078 155.302L263.863 175.793L255.036 95.3518Z" fill="black"/>
<path opacity="0.8" d="M321.183 148.206L321.805 97.6931C321.805 97.6931 323.67 78.1167 311.964 77.5632C311.964 77.5632 284.334 77.2426 272.263 80.9123C271.882 81.0271 271.531 81.2253 271.236 81.4926C270.941 81.7599 270.709 82.0895 270.558 82.4575C270.406 82.8255 270.338 83.2227 270.359 83.6202C270.38 84.0178 270.489 84.4057 270.678 84.7558C272.989 88.9604 276.811 100.046 278.222 128.323L277.65 158.603L321.183 148.206Z" fill="#65617D"/>
<path opacity="0.8" d="M262.3 179.378L312.583 179.156L312.633 179.157L337.345 179.051L335.103 145.976L321.387 146.216L277.591 155.111L263.863 175.793L262.3 179.378Z" fill="#65617D"/>
<path opacity="0.1" d="M262.3 179.378L312.583 179.156L312.633 179.157L337.345 179.051L335.103 145.976L321.387 146.216L277.591 155.111L263.863 175.793L262.3 179.378Z" fill="black"/>
<path opacity="0.8" d="M262.3 179.378L312.583 179.156L313.828 157.042L277.591 155.111L263.863 175.793L262.3 179.378Z" fill="#65617D"/>
<path opacity="0.1" d="M312.633 179.157L337.345 179.051L335.103 145.976C335.103 145.976 327.144 158.166 313.828 157.042L312.633 179.157Z" fill="white"/>
<path opacity="0.8" d="M134.844 202.525C135.662 212.013 142.419 210.645 142.419 210.645L143.677 210.554L156.149 209.658L155.928 194.945C151.708 194.623 147.464 194.797 143.284 195.464C138.596 196.343 134.48 198.31 134.844 202.525Z" fill="#DCE0ED"/>
<path opacity="0.1" d="M134.844 202.525C135.662 212.013 142.419 210.645 142.419 210.645L143.677 210.554C145.067 208.457 145.804 205.995 145.795 203.479C145.954 200.592 145.062 197.745 143.284 195.464C138.596 196.343 134.48 198.309 134.844 202.525Z" fill="black"/>
<path opacity="0.8" d="M308.618 109.494C308.328 124.863 317.316 137.496 328.694 137.711C340.072 137.926 349.531 125.641 349.821 110.272C350.111 94.9024 341.123 82.2689 329.745 82.054C318.367 81.8392 308.909 94.1243 308.618 109.494ZM316.392 111.469C316.603 100.32 323.803 91.4152 332.474 91.579C341.145 91.7427 348.004 100.913 347.793 112.062C347.582 123.21 340.382 132.115 331.711 131.951C323.04 131.787 316.182 122.617 316.392 111.469V111.469Z" fill="#636780"/>
<path opacity="0.8" d="M328.061 118.42L318.246 127.708L314.917 119.169L329.027 111.292L328.061 118.42Z" fill="#636780"/>
<path opacity="0.8" d="M315.626 24.424L307.217 25.287L304.035 28.926L308.353 50.248L317.733 84.646L323.868 108.256L328.227 122.605L330.819 141.535L333.523 154.566L342.203 163.58L360.593 142.687L363.676 135.665L371.027 121.349L352.904 112.451L332.884 110.303L323.904 85.943L316.766 57.782L315.626 24.424Z" fill="#EB171D"/>
<path opacity="0.8" d="M483.428 128.833L492.655 221.083L354.702 212.66L371.505 167.771L398.414 150.994L337.587 150.843L337.732 125.583L362.421 120.731L412.006 117.679L449.253 116.72L484.588 129.022" fill="#65617D"/>
<path opacity="0.1" d="M483.428 128.833L492.655 221.083L354.702 212.66L371.505 167.771L398.414 150.994L337.587 150.843L337.732 125.583L362.421 120.731L412.006 117.679L449.253 116.72L484.588 129.022" fill="black"/>
<path opacity="0.8" d="M293.073 217.001C292.641 239.873 299.847 260.838 320.977 258.956C347.584 258.889 350.013 240.957 350.445 218.084C350.877 195.212 338.355 177.948 322.512 177.649C306.67 177.349 293.505 194.129 293.073 217.001Z" fill="#636780"/>
<path opacity="0.1" d="M292.907 217.037C293.241 199.329 301.208 185.276 312.141 179.97C325.996 182.877 336.385 199.073 335.991 219.941C335.637 238.685 333.938 254.108 318.694 259.103C299.198 259.436 292.489 239.127 292.907 217.037Z" fill="black"/>
<path opacity="0.8" d="M266.655 180.592L274.589 190.034L260.039 187.252L249.317 177.019L239.953 157.372L226.398 148.708L192.693 152.644L161.558 153.236L150.265 142.818L163.111 141.317L176.092 141.268L208.693 141.146L247.492 140.846L255.054 162.23L260.824 176.941L266.655 180.592Z" fill="#EB171D"/>
<path opacity="0.8" d="M154.362 216.355C155.006 217.365 176.71 221.1 176.71 221.1L236.642 233.201L339.957 236.649L352.278 226.575L358.627 227.827L358.885 227.877L443.68 244.591L445.07 244.417L468.324 241.551L589.777 226.573L588.753 208.963L588.147 198.571L586.894 176.993L585.834 171.319L575.067 170.128L570.037 169.569L491.557 160.872L481.297 159.736L475.545 159.099L419.532 150.398L337.589 150.844L337.732 125.583L307.217 25.2867C300.053 26.3131 300.126 31.136 300.126 31.136L325.931 125.525L325.176 183.184C267.708 187.892 266.095 175.362 256.939 179.402L246.636 144.141L150.266 142.819C146.356 147.397 154.362 216.355 154.362 216.355Z" fill="#65617D"/>
<path opacity="0.8" d="M394.426 168.536L362.616 233.585L352.251 236.711L349.962 226.033L362.113 189.864L374.307 168.987L394.426 168.536Z" fill="#65617D"/>
<path opacity="0.15" d="M394.426 168.536L362.616 233.585L352.251 236.711L349.962 226.033L362.113 189.864L374.307 168.987L394.426 168.536Z" fill="black"/>
<path opacity="0.8" d="M468.32 242.228C468.975 207.544 444.719 178.959 414.142 178.382C383.565 177.804 358.246 205.453 357.591 240.137C356.936 274.822 381.193 303.407 411.77 303.984C442.347 304.562 467.665 276.913 468.32 242.228Z" fill="#636780"/>
<path opacity="0.1" d="M394.321 181.927C423.256 184.491 445.69 212.212 445.06 245.584C444.552 272.484 429.207 295.149 408.081 303.699C379.146 301.135 356.712 273.414 357.342 240.042C357.85 213.142 373.195 190.477 394.321 181.927Z" fill="black"/>
<path opacity="0.8" d="M563.436 134.169L565.933 147.14L573.574 186.878L609.696 184.07C609.696 184.07 611.979 177.467 606.379 174.868C606.379 174.868 604.95 152.339 598.42 145.131C597.72 144.31 596.835 143.667 595.838 143.257L563.436 134.169Z" fill="#65617D"/>
<path opacity="0.1" d="M565.933 147.14L573.574 186.878L609.696 184.07C609.696 184.07 611.979 177.467 606.379 174.868C606.379 174.868 604.95 152.339 598.42 145.131L565.933 147.14Z" fill="white"/>
<path opacity="0.8" d="M482.127 136.123C477.329 143.841 487.265 215.996 487.265 215.996L576.096 203.045L574.13 140.02C572.514 128.686 565.895 127.235 565.895 127.235C534.957 110.86 463.247 106.18 463.247 106.18C397.742 107.436 337.732 125.583 337.732 125.583C412.378 115.525 482.127 136.123 482.127 136.123Z" fill="#65617D"/>
<path opacity="0.1" d="M487.265 215.996L576.096 203.045L574.13 140.02C572.514 128.686 565.895 127.235 565.895 127.235C565.895 127.235 501.381 119.864 482.127 136.123C477.329 143.841 487.265 215.996 487.265 215.996Z" fill="black"/>
<path opacity="0.8" d="M496.705 212.018L570.983 200.94L569.36 147.168C568.012 137.498 562.479 136.262 562.479 136.262C562.479 136.262 508.538 129.994 492.434 143.873C488.42 150.459 496.705 212.018 496.705 212.018Z" fill="#65617D"/>
<path opacity="0.1" d="M513.765 168.131C513.958 157.946 509.576 149.604 503.979 149.498C498.382 149.392 493.688 157.563 493.496 167.748C493.304 177.933 497.685 186.276 503.282 186.381C508.879 186.487 513.573 178.316 513.765 168.131Z" fill="black"/>
<path opacity="0.8" d="M513.775 167.633C513.967 157.448 509.585 149.105 503.988 149C498.391 148.894 493.698 157.065 493.505 167.25C493.313 177.435 497.694 185.777 503.292 185.883C508.889 185.989 513.582 177.818 513.775 167.633Z" fill="#DCE0ED"/>
<path opacity="0.8" d="M502.568 153.793C502.568 153.793 506.709 154.536 504.446 159.977C503.249 162.62 502.361 165.392 501.797 168.237C501.797 168.237 497.602 170.319 497.904 163.178C498.205 156.037 502.568 153.793 502.568 153.793Z" fill="#F0F0F4"/>
<path opacity="0.1" d="M567.567 161.834C567.746 152.317 563.652 144.522 558.422 144.423C553.192 144.324 548.806 151.959 548.627 161.477C548.447 170.994 552.541 178.789 557.771 178.888C563.001 178.987 567.387 171.351 567.567 161.834Z" fill="black"/>
<path opacity="0.8" d="M567.576 161.336C567.756 151.819 563.662 144.024 558.432 143.925C553.201 143.826 548.816 151.461 548.636 160.978C548.456 170.495 552.55 178.291 557.781 178.389C563.011 178.488 567.396 170.853 567.576 161.336Z" fill="#DCE0ED"/>
<path opacity="0.8" d="M557.034 147.508C557.034 147.508 561.175 148.251 558.912 153.693C557.716 156.336 556.827 159.108 556.263 161.953C556.263 161.953 552.069 164.035 552.37 156.894C552.671 149.753 557.034 147.508 557.034 147.508Z" fill="#F0F0F4"/>
<path opacity="0.1" d="M515.557 152.54C516.091 159.366 518.462 209.934 518.462 209.934L524.117 209.099L527.262 208.64L531.452 208.021L531.957 207.945L548.461 205.515L546.224 151.878C546.151 150.155 545.418 148.526 544.178 147.329C542.937 146.131 541.283 145.457 539.559 145.445C539.395 145.447 539.225 145.449 539.055 145.46C537.917 145.539 536.689 145.635 535.41 145.75C534.871 145.8 534.326 145.85 533.772 145.909C532.188 146.069 530.554 146.267 528.949 146.501C528.129 146.625 527.324 146.754 526.528 146.894C525.182 147.138 523.881 147.407 522.679 147.719C521.862 147.928 521.085 148.157 520.372 148.408C517.381 149.429 515.416 150.778 515.557 152.54Z" fill="black"/>
<path opacity="0.8" d="M539.559 145.445L541.642 205.72L543.474 205.59L541.414 145.719C540.811 145.542 540.187 145.45 539.559 145.445Z" fill="#65617D"/>
<path opacity="0.8" d="M533.772 145.909L535.639 206.769L538.465 206.822L535.41 145.75C534.871 145.8 534.326 145.85 533.772 145.909Z" fill="#65617D"/>
<path opacity="0.8" d="M526.528 146.894L530.131 207.996L531.96 208.03L531.957 207.945L528.949 146.501C528.129 146.625 527.324 146.754 526.528 146.894Z" fill="#65617D"/>
<path opacity="0.8" d="M520.372 148.408L524.117 209.099L524.125 209.214L527.286 208.939L527.262 208.64L522.678 147.719C521.862 147.928 521.085 148.157 520.372 148.408Z" fill="#65617D"/>
<path opacity="0.1" d="M587.062 196.606C587.062 196.606 593.763 165.196 579.838 163.313C565.912 161.429 519.994 163.927 521.12 176.912C522.246 189.897 523.369 209.613 523.369 209.613L532.879 207.674C532.879 207.674 526.337 177.883 537.448 176.971C548.559 176.059 575.782 173.457 575.782 173.457C575.782 173.457 583.157 172.35 578.429 198.313L587.062 196.606Z" fill="black"/>
<path opacity="0.8" d="M587.005 199.597C587.005 199.597 593.744 166.193 579.819 164.309C565.894 162.426 519.975 164.924 521.101 177.909C522.227 190.894 523.35 210.61 523.35 210.61L532.86 208.671C532.86 208.671 526.318 178.88 537.429 177.968C548.54 177.056 575.763 174.454 575.763 174.454C575.763 174.454 583.101 175.341 578.372 201.303L587.005 199.597Z" fill="#DCE0ED"/>
<path opacity="0.8" d="M339.957 236.649L352.251 236.711C361.97 197.341 377.222 173.033 377.222 173.033C382.257 170.465 436.743 171.829 436.743 171.829C442.376 172.932 443.533 190.904 443.533 190.904C443.533 190.904 438.635 194.964 443.235 197.714C445.291 198.939 452.125 199.293 460.012 199.038C469.806 198.714 481.228 197.444 487.149 195.716C497.848 192.592 489.491 186.287 489.491 186.287C489.491 186.287 488.033 184.265 487.244 173.281C486.681 166.866 484.728 160.652 481.52 155.069C481.076 154.297 480.794 153.878 480.794 153.878C480.245 153.336 479.591 152.91 478.873 152.625C464.899 146.478 395.757 150.776 395.757 150.776L370.019 158.437C369.306 158.708 368.18 160.492 366.78 163.347C358.368 180.535 339.957 236.649 339.957 236.649Z" fill="#65617D"/>
<path opacity="0.1" d="M339.957 236.649L352.251 236.711C361.97 197.341 377.222 173.033 377.222 173.033C382.257 170.465 436.743 171.829 436.743 171.829C442.376 172.932 443.533 190.904 443.533 190.904C443.533 190.904 438.635 194.964 443.235 197.714C445.291 198.939 452.125 199.293 460.012 199.038C469.806 198.714 481.228 197.444 487.149 195.716C497.848 192.592 489.491 186.287 489.491 186.287C489.491 186.287 488.033 184.265 487.244 173.281C486.681 166.866 484.728 160.652 481.52 155.069C481.076 154.297 480.794 153.878 480.794 153.878C480.245 153.336 479.591 152.91 478.873 152.625C464.899 146.478 395.757 150.776 395.757 150.776L370.019 158.437C369.306 158.708 368.18 160.492 366.78 163.347C358.368 180.535 339.957 236.649 339.957 236.649Z" fill="black"/>
<path opacity="0.8" d="M366.78 163.347C390.574 154.617 455.571 160.716 455.571 160.716C462.595 154.936 475.607 154.792 481.52 155.069C481.076 154.297 480.794 153.878 480.794 153.878C480.245 153.336 479.591 152.91 478.873 152.625C464.899 146.478 395.757 150.776 395.757 150.776L370.019 158.437C369.306 158.708 368.18 160.492 366.78 163.347Z" fill="#65617D"/>
<path opacity="0.8" d="M451.701 163.136C453.099 168.313 458.855 189.034 458.855 189.034C459.433 192.344 459.819 195.684 460.012 199.038C469.806 198.714 481.228 197.444 487.149 195.716C497.848 192.593 489.491 186.287 489.491 186.287C489.491 186.287 488.034 184.265 487.244 173.281C486.642 166.398 484.433 159.752 480.794 153.878C480.245 153.336 479.591 152.91 478.873 152.625C469.597 154.629 450.643 159.217 451.701 163.136Z" fill="#65617D"/>
<path opacity="0.1" d="M451.701 163.136C453.099 168.313 458.855 189.034 458.855 189.034C459.433 192.344 459.819 195.684 460.012 199.038C469.806 198.714 481.228 197.444 487.149 195.716C497.848 192.593 489.491 186.287 489.491 186.287C489.491 186.287 488.034 184.265 487.244 173.281C486.642 166.398 484.433 159.752 480.794 153.878C480.245 153.336 479.591 152.91 478.873 152.625C469.597 154.629 450.643 159.217 451.701 163.136Z" fill="white"/>
<path opacity="0.8" d="M307.217 25.2867L337.732 125.583L464.973 107.17L448.162 46.8955C448.162 46.8955 445.555 33.1347 438.97 32.0132C438.97 32.0132 337.252 12.3917 307.217 25.2867ZM321.379 41.0108C317.272 27.471 377.725 34.222 377.725 34.222C385.864 33.5929 395.673 34.2768 404.792 35.3814C408.13 35.7885 411.372 36.2536 414.409 36.7298C421.185 37.7951 426.938 38.9308 430.379 39.649C432.569 40.1042 433.826 40.3922 433.826 40.3922C445.842 44.3587 451.754 94.3304 451.754 94.3304C452.652 99.5826 446.443 98.3435 446.443 98.3435L446.039 98.3508L440.377 98.4633L423.498 98.8076L341.198 100.469C336.347 99.879 335.708 94.1331 335.708 94.1331C333.169 89.9717 321.379 41.0108 321.379 41.0108H321.379Z" fill="#65617D"/>
<path opacity="0.8" d="M446.039 98.3508L446.443 98.3435C446.443 98.3435 452.652 99.5827 451.754 94.3304C451.754 94.3304 445.842 44.3587 433.826 40.3922C433.826 40.3922 432.57 40.1042 430.379 39.649C434.609 48.2949 448.135 77.883 446.039 98.3508Z" fill="#65617D"/>
<path opacity="0.1" d="M446.039 98.3508L446.443 98.3435C446.443 98.3435 452.652 99.5827 451.754 94.3304C451.754 94.3304 445.842 44.3587 433.826 40.3922C433.826 40.3922 432.57 40.1042 430.379 39.649C434.609 48.2949 448.135 77.883 446.039 98.3508Z" fill="black"/>
<path opacity="0.1" d="M432.552 221.071C433.249 222.428 434.318 223.559 435.634 224.33C436.95 225.101 438.459 225.481 439.984 225.424L442.523 225.363L466.497 224.783L475.136 224.573L483.124 224.06L588.753 208.963L588.147 198.571L576.002 200.077L570.979 200.7L496.429 209.932L486.618 211.148L481.861 211.736L461.757 211.212L439.994 210.641C438.893 210.609 437.798 210.799 436.772 211.199C434.89 211.907 433.352 213.314 432.48 215.126C432.024 216.053 431.792 217.074 431.805 218.107C431.817 219.14 432.073 220.156 432.552 221.071V221.071Z" fill="black"/>
<path opacity="0.8" d="M432.533 222.068C433.23 223.425 434.299 224.555 435.615 225.326C436.932 226.098 438.441 226.477 439.965 226.421L475.117 225.569L483.105 225.057L595.749 208.956L604.603 207.692L609.427 207C618.935 205.186 616.288 195.662 616.288 195.662C615.706 191.328 599.498 187.033 594.182 187.103C590.606 187.145 590.004 192.643 589.995 196.247C589.992 198.012 590.127 199.321 590.127 199.321L584.859 199.975L481.842 212.733L439.975 211.638C438.423 211.581 436.888 211.974 435.555 212.77C434.222 213.566 433.147 214.73 432.461 216.123C432.005 217.05 431.773 218.071 431.786 219.104C431.798 220.137 432.055 221.152 432.533 222.068V222.068Z" fill="#DCE0ED"/>
<path opacity="0.1" d="M601.71 193.226C601.71 193.226 597.12 198.624 590.127 199.323C590.127 199.323 593.067 193.229 601.71 193.226Z" fill="black"/>
<path opacity="0.1" d="M602.581 208.699C602.581 208.699 617.374 208.646 617.223 216.621C617.072 224.596 607.743 225.749 607.743 225.749L475.181 248.674L437.621 248.63C437.621 248.63 424.694 237.915 438.405 233.52L476.266 235.232L602.637 214.517C602.637 214.517 599.399 209.969 602.581 208.699Z" fill="black"/>
<path opacity="0.8" d="M437.602 249.626L475.161 249.673L593.031 229.287L601.655 227.795L607.723 226.748C607.723 226.748 617.054 225.593 617.204 217.618C617.312 211.896 609.719 210.307 605.424 209.867C603.737 209.695 602.56 209.698 602.56 209.698C599.38 210.964 602.62 215.513 602.62 215.513L598.019 216.268L476.247 236.231L438.386 234.519C424.676 238.912 437.602 249.626 437.602 249.626Z" fill="#DCE0ED"/>
<path opacity="0.8" d="M591.572 202.01L583.829 198.373L579.845 198.132L579.543 231.698L591.885 229.439L597.098 226.213L599.854 212.304C599.854 212.304 598.967 206.47 598.478 205.963C597.989 205.455 591.572 202.01 591.572 202.01Z" fill="#DCE0ED"/>
<path opacity="0.1" d="M591.572 202.01L583.829 198.373L579.845 198.132L579.543 231.698L591.885 229.439L597.098 226.213L599.854 212.304C599.854 212.304 598.967 206.47 598.478 205.963C597.989 205.455 591.572 202.01 591.572 202.01Z" fill="black"/>
<path opacity="0.1" d="M593.031 229.287C592.934 229.4 592.883 229.459 592.883 229.459L601.552 227.957C601.588 227.903 601.624 227.849 601.655 227.795C606.349 220.539 606.851 214.585 605.424 209.867C603.737 209.695 602.56 209.698 602.56 209.698C599.38 210.964 602.62 215.513 602.62 215.513L598.019 216.268C598.204 222.843 593.893 228.267 593.031 229.287Z" fill="black"/>
<path opacity="0.1" d="M580.84 198.149C582.29 198.74 583.63 199.348 584.859 199.975C590.396 202.772 593.793 205.857 595.749 208.956L604.603 207.692C600.925 199.665 591.852 195.864 591.852 195.864L589.995 196.248L580.84 198.149Z" fill="black"/>
<path opacity="0.8" d="M590.857 195.847C590.857 195.847 614.932 205.941 600.555 227.94L591.885 229.439C591.885 229.439 609.368 210.157 579.845 198.132L590.857 195.847Z" fill="#DCE0ED"/>
<path opacity="0.8" d="M532.836 205.554L523.871 205.052L524.685 241.133L539.19 238.748L545.393 235.873L548.353 228.783L550.481 221.676L545.786 215.106L540.372 211.347L532.836 205.554Z" fill="#DCE0ED"/>
<path opacity="0.1" d="M532.836 205.554L523.871 205.052L524.685 241.133L539.19 238.748L545.393 235.873L548.353 228.783L550.481 221.676L545.786 215.106L540.372 211.347L532.836 205.554Z" fill="black"/>
<path opacity="0.8" d="M537.801 224.262C537.878 220.225 536.005 216.915 533.62 216.87C531.234 216.825 529.238 220.062 529.162 224.099C529.086 228.136 530.958 231.446 533.344 231.491C535.729 231.536 537.725 228.299 537.801 224.262Z" fill="#DCE0ED"/>
<path opacity="0.8" d="M574.492 234.882C574.793 235.013 575.064 235.205 575.286 235.446C575.508 235.687 575.677 235.973 575.782 236.283C575.887 236.594 575.925 236.924 575.895 237.25C575.865 237.577 575.766 237.893 575.606 238.18C574.593 239.993 573.373 242.34 573.472 242.968C573.639 244.031 571.288 243.114 570.981 242.859C570.674 242.604 566.371 242.772 566.177 239.839C566.153 238.954 566.361 238.079 566.78 237.3C567.199 236.52 567.815 235.864 568.567 235.397L567.691 228.961L573.619 228.574L573.446 234.429L574.492 234.882Z" fill="#636780"/>
<path opacity="0.1" d="M574.492 234.882C574.793 235.013 575.064 235.205 575.286 235.446C575.508 235.687 575.677 235.973 575.782 236.283C575.887 236.594 575.925 236.924 575.895 237.25C575.865 237.577 575.766 237.893 575.606 238.18C574.593 239.993 573.373 242.34 573.472 242.968C573.639 244.031 571.288 243.114 570.981 242.859C570.674 242.604 566.371 242.772 566.177 239.839C566.153 238.954 566.361 238.079 566.78 237.3C567.199 236.52 567.815 235.864 568.567 235.397L567.691 228.961L573.619 228.574L573.446 234.429L574.492 234.882Z" fill="black"/>
<path opacity="0.1" d="M572.88 234.73C572.88 234.73 570.756 241.546 571.624 241.812C572.492 242.077 572.88 234.73 572.88 234.73Z" fill="black"/>
<path opacity="0.1" d="M570.667 233.068C570.667 233.068 568.544 239.884 569.412 240.149C570.279 240.415 570.667 233.068 570.667 233.068Z" fill="black"/>
<path opacity="0.8" d="M547.173 211.972L550.108 232.64C550.108 232.64 554.231 232.154 556.508 231.709C557.007 231.65 557.493 231.509 557.947 231.292C558.063 231.18 558.307 231.194 558.63 231.265L558.635 231.265C559.737 231.51 561.694 232.465 562.092 231.7C562.122 231.64 562.16 231.585 562.205 231.537L562.21 231.532C562.607 231.116 563.359 231.439 564.089 231.563C564.48 231.668 564.896 231.621 565.253 231.43C565.874 231.033 567.103 231.714 568.116 231.953C568.756 232.105 569.31 232.085 569.575 231.512C569.677 231.326 569.821 231.167 569.995 231.047C570.17 230.928 570.37 230.851 570.58 230.823L570.585 230.823C571.547 230.602 572.884 230.792 573.66 230.642C573.965 230.588 574.177 230.477 574.25 230.269C574.408 229.823 575.27 229.625 576.19 229.468C577.305 229.275 578.505 229.143 578.603 228.691C578.631 228.542 578.742 228.479 578.906 228.477C579.523 228.581 580.13 228.743 580.717 228.96L580.722 228.96C581.218 229.094 581.632 229.107 581.758 228.75C581.895 228.359 582.467 228.415 583.117 228.587C583.643 228.726 584.222 228.941 584.669 229.055C585.071 229.152 585.36 229.172 585.413 228.984C585.59 228.324 587.72 229.86 588.244 228.539C588.767 227.217 595.747 218.544 587.156 206.914C587.156 206.914 584.771 207.033 582.945 207.328C582.339 207.399 581.745 207.554 581.182 207.788C581.172 207.788 581.167 207.793 581.156 207.798C580.111 208.069 579.028 208.173 577.95 208.106C577.331 208.102 576.719 208.235 576.157 208.496C575.936 208.612 575.758 208.796 575.649 209.02C575.358 209.648 574.717 209.765 574.02 209.712C573.079 209.64 572.039 209.261 571.652 209.443C571.641 209.449 571.629 209.454 571.617 209.457C570.913 209.743 568.312 209.405 567.86 209.83C567.847 209.842 567.835 209.855 567.825 209.869C567.63 210.145 566.614 209.832 565.575 209.672L565.57 209.672C565.224 209.57 564.861 209.543 564.504 209.592C564.147 209.641 563.805 209.766 563.5 209.957C563.036 210.312 562.452 210.472 561.871 210.405C561.167 210.34 560.457 210.355 559.756 210.45C559.593 210.491 559.445 210.58 559.333 210.706C558.899 211.222 557.889 211.133 556.986 211.161C556.523 211.132 556.061 211.24 555.659 211.47C555.514 211.568 555.349 211.633 555.176 211.66C553.835 211.757 552.488 211.665 551.173 211.385L547.173 211.972Z" fill="#636780"/>
<path opacity="0.1" d="M583.117 228.586C583.643 228.726 584.222 228.941 584.669 229.055C591.615 218.715 586.083 210.658 582.945 207.328C582.339 207.399 581.745 207.554 581.182 207.788C587.807 215.736 584.478 225.446 583.117 228.586Z" fill="black"/>
<path opacity="0.1" d="M578.906 228.477C579.523 228.581 580.13 228.743 580.717 228.96L580.722 228.96C586.691 218.857 580.894 211.109 577.95 208.106C577.331 208.102 576.718 208.235 576.157 208.496C582.488 215.686 580.403 224.442 578.906 228.477Z" fill="black"/>
<path opacity="0.1" d="M573.66 230.642C573.965 230.588 574.177 230.477 574.25 230.269C574.408 229.823 575.27 229.625 576.19 229.468C581.429 220.313 577.032 213.125 574.02 209.712C573.079 209.64 572.039 209.261 571.652 209.443C571.641 209.449 571.629 209.454 571.617 209.457C578.613 217.607 574.972 227.685 573.66 230.642Z" fill="black"/>
<path opacity="0.1" d="M568.116 231.953C568.756 232.105 569.31 232.085 569.575 231.512C569.676 231.326 569.821 231.167 569.995 231.047C570.17 230.928 570.37 230.851 570.58 230.823L570.585 230.823C576.691 220.632 570.81 212.818 567.86 209.83C567.847 209.842 567.835 209.855 567.825 209.869C567.63 210.145 566.614 209.832 565.575 209.672C573.808 218.304 569.279 229.477 568.116 231.953Z" fill="black"/>
<path opacity="0.1" d="M562.21 231.532C562.607 231.116 563.359 231.439 564.089 231.563C570.438 221.451 564.927 213.619 561.871 210.405C561.167 210.34 560.457 210.355 559.756 210.45C566.797 218.321 563.646 228.119 562.21 231.532Z" fill="black"/>
<path opacity="0.1" d="M556.508 231.709C557.007 231.65 557.493 231.509 557.947 231.292C558.063 231.18 558.307 231.194 558.63 231.265L558.635 231.265C564.269 222.028 560.049 214.728 556.986 211.16C556.523 211.132 556.061 211.24 555.658 211.469C555.514 211.568 555.349 211.633 555.176 211.66C560.997 219.473 557.821 228.687 556.508 231.709Z" fill="black"/>
<path opacity="0.8" d="M422.245 244.35C422.661 222.329 410.874 204.248 395.917 203.965C380.961 203.683 368.499 221.306 368.083 243.327C367.667 265.349 379.455 283.43 394.411 283.713C409.368 283.995 421.829 266.372 422.245 244.35Z" fill="#636780"/>
<path opacity="0.1" d="M415.755 244.81C416.092 226.963 407.551 212.329 396.677 212.123C385.804 211.918 376.716 226.219 376.379 244.066C376.042 261.913 384.583 276.547 395.457 276.752C406.33 276.957 415.418 262.656 415.755 244.81Z" fill="black"/>
<path opacity="0.8" d="M415.774 243.813C416.111 225.966 407.569 211.332 396.696 211.126C385.823 210.921 376.735 225.222 376.398 243.069C376.061 260.916 384.602 275.55 395.475 275.755C406.349 275.961 415.436 261.659 415.774 243.813Z" fill="#F0F0F4"/>
<path opacity="0.8" d="M395.249 221.736C395.291 219.534 394.283 217.729 392.999 217.705C391.714 217.68 390.639 219.446 390.597 221.648C390.556 223.85 391.563 225.655 392.848 225.679C394.133 225.704 395.208 223.938 395.249 221.736Z" fill="#636780"/>
<path opacity="0.8" d="M385.286 256.45C385.328 254.248 384.32 252.443 383.036 252.418C381.751 252.394 380.676 254.16 380.634 256.362C380.593 258.564 381.601 260.369 382.885 260.393C384.17 260.417 385.245 258.652 385.286 256.45Z" fill="#636780"/>
<path opacity="0.8" d="M410.687 240.31C410.729 238.107 409.721 236.302 408.437 236.278C407.152 236.254 406.077 238.019 406.036 240.222C405.994 242.424 407.002 244.229 408.286 244.253C409.571 244.277 410.646 242.512 410.687 240.31Z" fill="#636780"/>
<path opacity="0.8" d="M403.436 263.441C403.478 261.238 402.47 259.434 401.186 259.409C399.901 259.385 398.826 261.151 398.784 263.353C398.743 265.555 399.751 267.36 401.035 267.384C402.32 267.408 403.395 265.643 403.436 263.441Z" fill="#636780"/>
<path opacity="0.8" d="M198.351 166.329C198.351 166.329 177.934 217.798 178.869 221.056C178.869 221.056 170.551 225.885 168.581 224.602C166.611 223.318 168.789 200.423 168.789 200.423L172.908 180.308L177.37 168.426L198.351 166.329Z" fill="#65617D"/>
<path opacity="0.15" d="M198.351 166.329C198.351 166.329 177.934 217.798 178.869 221.056C178.869 221.056 170.551 225.885 168.581 224.602C166.611 223.318 168.789 200.423 168.789 200.423L172.908 180.308L177.37 168.426L198.351 166.329Z" fill="black"/>
<path opacity="0.8" d="M382.372 234.789C382.413 232.587 381.405 230.782 380.121 230.757C378.836 230.733 377.761 232.499 377.72 234.701C377.678 236.903 378.686 238.708 379.97 238.732C381.255 238.756 382.33 236.991 382.372 234.789Z" fill="#636780"/>
<path opacity="0.8" d="M399.302 244.748C399.401 239.518 396.431 235.22 392.669 235.149C388.907 235.078 385.777 239.261 385.678 244.491C385.58 249.721 388.549 254.018 392.311 254.089C396.073 254.161 399.203 249.978 399.302 244.748Z" fill="#636780"/>
<path opacity="0.8" d="M175.361 235.2C174.795 265.205 184.247 292.707 211.966 290.239C246.87 290.15 250.057 266.626 250.623 236.622C251.19 206.617 234.764 183.969 213.981 183.577C193.198 183.184 175.928 205.196 175.361 235.2Z" fill="#636780"/>
<path opacity="0.1" d="M175.143 235.247C175.582 212.017 186.033 193.582 200.375 186.622C218.551 190.435 232.179 211.682 231.662 239.057C231.198 263.646 228.969 283.879 208.971 290.432C183.396 290.868 174.595 264.226 175.143 235.247Z" fill="black"/>
<path opacity="0.1" d="M160.898 222.213C160.898 222.213 165.802 226.543 168.6 223.605C168.6 223.605 176.345 169.902 184.823 169.813L213.986 170.114C213.986 170.114 217.446 171.676 218.819 178.183L236.661 232.205L339.976 235.652L348.178 219.268L262.694 217.903L262.685 217.863C262.252 216.199 248.936 164.931 239.456 158.405C239.451 158.4 239.446 158.4 239.441 158.394C239.121 158.169 238.77 157.989 238.399 157.861C238.399 157.861 202.851 152.453 191.077 155.472C191.077 155.472 178.814 157.982 175.753 161.664C175.744 161.673 175.735 161.683 175.728 161.693C175.321 162.105 170.597 167.226 168.883 182.226L160.898 222.213Z" fill="black"/>
<path opacity="0.8" d="M160.879 223.21C160.879 223.21 165.783 227.54 168.581 224.602C168.581 224.602 176.327 170.899 184.804 170.81L213.967 171.111C213.967 171.111 217.428 172.672 218.801 179.18L236.642 233.201L339.957 236.649L348.159 220.265L262.675 218.9L262.666 218.86C262.234 217.196 248.917 165.928 239.437 159.402C239.432 159.396 239.427 159.396 239.422 159.391C239.102 159.165 238.751 158.986 238.38 158.858C238.38 158.858 202.833 153.45 191.059 156.469C191.059 156.469 178.795 158.979 175.734 162.661C175.725 162.67 175.717 162.68 175.709 162.69C175.302 163.102 170.578 168.223 168.864 183.223L160.879 223.21Z" fill="#65617D"/>
<path opacity="0.1" d="M160.879 223.21C160.879 223.21 165.783 227.54 168.581 224.602C168.581 224.602 176.327 170.899 184.804 170.81L213.967 171.111C213.967 171.111 217.428 172.672 218.801 179.18L236.642 233.201L339.957 236.649L348.159 220.265L262.675 218.9L262.666 218.86C262.234 217.196 248.917 165.928 239.437 159.402C239.432 159.396 239.427 159.396 239.422 159.391C239.102 159.165 238.751 158.986 238.38 158.858C238.38 158.858 202.833 153.45 191.059 156.469C191.059 156.469 178.795 158.979 175.734 162.661C175.725 162.67 175.717 162.68 175.709 162.69C175.302 163.102 170.578 168.223 168.864 183.223L160.879 223.21Z" fill="black"/>
<path opacity="0.8" d="M225.29 165.591C227.692 170.373 248.023 229.094 248.023 229.094L262.675 218.9L262.666 218.86C262.234 217.196 248.903 165.873 239.422 159.391C233.162 160.34 223.656 162.344 225.29 165.591Z" fill="#65617D"/>
<path opacity="0.8" d="M253.705 139.453L264.693 178.053L325.783 177.461L325.176 183.184C325.176 183.184 277.196 189.258 256.939 179.402L246.636 144.139L150.265 142.818L168.705 138.845L253.705 139.453Z" fill="#65617D"/>
<path opacity="0.1" d="M253.705 139.453L264.693 178.053L325.783 177.461L325.176 183.184C325.176 183.184 277.196 189.258 256.939 179.402L246.636 144.139L150.265 142.818L168.705 138.845L253.705 139.453Z" fill="white"/>
<path opacity="0.1" d="M538.824 205.335C538.824 205.335 571.243 222.401 546.694 237.394L540.187 238.767C540.187 238.767 564.268 222.103 524.868 205.071L538.824 205.335Z" fill="black"/>
<path opacity="0.8" d="M537.827 205.316C537.827 205.316 570.246 222.382 545.697 237.375L539.19 238.748C539.19 238.748 563.271 222.084 523.871 205.052L537.827 205.316Z" fill="#DCE0ED"/>
<path opacity="0.8" d="M216.65 240.218C216.975 223.014 209.094 208.913 199.046 208.723C188.999 208.533 180.591 222.326 180.266 239.531C179.941 256.735 187.822 270.836 197.87 271.026C207.917 271.216 216.326 257.423 216.65 240.218Z" fill="#636780"/>
<path opacity="0.1" d="M212.285 240.808C212.548 226.866 206.84 215.451 199.536 215.313C192.232 215.175 186.097 226.366 185.833 240.309C185.57 254.251 191.278 265.666 198.582 265.804C205.887 265.942 212.022 254.751 212.285 240.808Z" fill="black"/>
<path opacity="0.8" d="M212.304 239.811C212.567 225.869 206.859 214.454 199.555 214.316C192.25 214.178 186.116 225.369 185.852 239.312C185.589 253.255 191.297 264.669 198.601 264.807C205.906 264.945 212.041 253.754 212.304 239.811Z" fill="#F0F0F4"/>
<path opacity="0.8" d="M198.561 222.607C198.593 220.887 197.92 219.479 197.057 219.463C196.194 219.446 195.468 220.828 195.436 222.548C195.403 224.269 196.077 225.677 196.94 225.693C197.802 225.709 198.528 224.328 198.561 222.607Z" fill="#636780"/>
<path opacity="0.8" d="M191.796 249.747C191.828 248.026 191.155 246.618 190.292 246.602C189.429 246.586 188.703 247.967 188.671 249.688C188.638 251.408 189.312 252.816 190.175 252.832C191.038 252.849 191.763 251.467 191.796 249.747Z" fill="#636780"/>
<path opacity="0.8" d="M208.894 237.085C208.927 235.365 208.253 233.957 207.39 233.941C206.527 233.924 205.802 235.306 205.769 237.026C205.737 238.747 206.41 240.155 207.273 240.171C208.136 240.187 208.862 238.806 208.894 237.085Z" fill="#636780"/>
<path opacity="0.8" d="M203.975 255.17C204.007 253.45 203.334 252.042 202.471 252.026C201.608 252.01 200.882 253.391 200.85 255.111C200.817 256.832 201.491 258.24 202.354 258.256C203.217 258.272 203.943 256.891 203.975 255.17Z" fill="#636780"/>
<path opacity="0.8" d="M189.882 232.831C189.915 231.11 189.242 229.702 188.379 229.686C187.516 229.67 186.79 231.051 186.757 232.772C186.725 234.492 187.398 235.9 188.261 235.916C189.124 235.933 189.85 234.551 189.882 232.831Z" fill="#636780"/>
<path opacity="0.8" d="M201.236 240.576C201.313 236.49 199.327 233.139 196.8 233.091C194.273 233.044 192.161 236.317 192.084 240.403C192.007 244.489 193.993 247.841 196.52 247.888C199.048 247.936 201.159 244.662 201.236 240.576Z" fill="#636780"/>
<path opacity="0.1" d="M465.239 106.302C465.239 106.302 409.876 107.251 337.732 125.583L465.239 106.302Z" fill="black"/>
<path opacity="0.8" d="M203.102 4.46365C203.102 4.46365 206.097 5.00106 204.46 8.93709C203.594 10.8486 202.952 12.8532 202.544 14.9114C202.544 14.9114 199.51 16.4169 199.728 11.2519C199.946 6.08698 203.102 4.46365 203.102 4.46365Z" fill="#DCE0ED"/>
<path opacity="0.8" d="M313.122 317.667C313.511 317.653 313.879 317.49 314.149 317.21C314.42 316.93 314.571 316.556 314.571 316.167C314.571 315.778 314.42 315.404 314.149 315.124C313.879 314.844 313.511 314.68 313.122 314.667C312.733 314.68 312.364 314.844 312.094 315.124C311.824 315.404 311.673 315.778 311.673 316.167C311.673 316.556 311.824 316.93 312.094 317.21C312.364 317.49 312.733 317.653 313.122 317.667V317.667Z" fill="#65617D"/>
</g>
<path opacity="0.1" d="M663.907 454.79C674.222 454.79 682.584 453.376 682.584 451.632C682.584 449.889 674.222 448.475 663.907 448.475C653.593 448.475 645.231 449.889 645.231 451.632C645.231 453.376 653.593 454.79 663.907 454.79Z" fill="#EB171D"/>
<path d="M651.365 436.962C651.365 436.962 662.018 436.633 665.229 434.347C668.44 432.061 681.617 429.331 682.413 432.998C683.21 436.664 698.423 451.234 686.396 451.331C674.368 451.428 658.449 449.458 655.244 447.506C652.039 445.554 651.365 436.962 651.365 436.962Z" fill="#A8A8A8"/>
<path opacity="0.2" d="M686.61 450.055C674.582 450.152 658.663 448.181 655.459 446.229C653.018 444.743 652.046 439.409 651.72 436.948C651.495 436.957 651.365 436.962 651.365 436.962C651.365 436.962 652.04 445.554 655.244 447.506C658.449 449.458 674.368 451.428 686.396 451.331C689.867 451.303 691.067 450.068 691.001 448.238C690.519 449.344 689.194 450.034 686.61 450.055Z" fill="black"/>
<path opacity="0.1" d="M772.235 417.273C780.172 417.273 786.607 416.185 786.607 414.844C786.607 413.502 780.172 412.414 772.235 412.414C764.298 412.414 757.863 413.502 757.863 414.844C757.863 416.185 764.298 417.273 772.235 417.273Z" fill="#EB171D"/>
<path d="M762.583 403.554C762.583 403.554 770.781 403.302 773.252 401.543C775.723 399.783 785.862 397.683 786.475 400.504C787.088 403.326 798.795 414.537 789.54 414.612C780.284 414.687 768.034 413.17 765.568 411.668C763.103 410.166 762.583 403.554 762.583 403.554Z" fill="#A8A8A8"/>
<path opacity="0.2" d="M789.705 413.63C780.45 413.704 768.2 412.188 765.734 410.686C763.856 409.542 763.107 405.437 762.857 403.544C762.684 403.551 762.583 403.554 762.583 403.554C762.583 403.554 763.103 410.166 765.568 411.668C768.034 413.17 780.284 414.686 789.54 414.612C792.212 414.59 793.134 413.64 793.084 412.232C792.712 413.082 791.694 413.614 789.705 413.63Z" fill="black"/>
<path opacity="0.1" d="M707.027 574.238C725.976 574.238 741.336 571.642 741.336 568.438C741.336 565.235 725.976 562.638 707.027 562.638C688.079 562.638 672.718 565.235 672.718 568.438C672.718 571.642 688.079 574.238 707.027 574.238Z" fill="#EB171D"/>
<path d="M683.986 541.488C683.986 541.488 703.557 540.885 709.455 536.685C715.353 532.485 739.56 527.47 741.023 534.206C742.486 540.942 770.434 567.707 748.339 567.885C726.243 568.063 696.999 564.443 691.112 560.857C685.226 557.272 683.986 541.488 683.986 541.488Z" fill="#A8A8A8"/>
<path opacity="0.2" d="M748.733 565.54C726.638 565.718 697.393 562.099 691.507 558.513C687.024 555.782 685.237 545.983 684.639 541.462C684.226 541.48 683.986 541.488 683.986 541.488C683.986 541.488 685.226 557.271 691.112 560.857C696.999 564.443 726.243 568.063 748.339 567.885C754.717 567.833 756.92 565.564 756.799 562.203C755.913 564.234 753.48 565.502 748.733 565.54Z" fill="black"/>
<path d="M1069.29 364.274C1069.29 387.302 1060.4 409.441 1044.47 426.07C1028.54 442.7 1006.8 452.536 983.796 453.525C960.789 454.514 938.289 446.58 920.991 431.379C903.693 416.178 892.934 394.883 890.958 371.94C890.828 370.489 890.731 369.038 890.687 367.566V367.49C890.644 366.418 890.622 365.346 890.622 364.274C890.63 340.586 900.046 317.872 916.798 301.125C933.551 284.378 956.268 274.97 979.956 274.97C1003.64 274.97 1026.36 284.378 1043.11 301.125C1059.87 317.872 1069.28 340.586 1069.29 364.274V364.274Z" fill="#65617D"/>
<path opacity="0.2" d="M1069.29 364.274C1069.29 387.302 1060.4 409.441 1044.47 426.07C1028.54 442.7 1006.8 452.536 983.796 453.525C960.789 454.514 938.289 446.58 920.991 431.379C903.693 416.178 892.934 394.883 890.958 371.94C890.828 370.489 890.731 369.038 890.687 367.566V367.49C890.644 366.418 890.622 365.346 890.622 364.274C890.63 340.586 900.046 317.872 916.798 301.125C933.551 284.378 956.268 274.97 979.956 274.97C1003.64 274.97 1026.36 284.378 1043.11 301.125C1059.87 317.872 1069.28 340.586 1069.29 364.274V364.274Z" fill="black"/>
<path d="M979.953 413.001C1006.86 413.001 1028.68 391.185 1028.68 364.274C1028.68 337.362 1006.86 315.546 979.953 315.546C953.042 315.546 931.226 337.362 931.226 364.274C931.226 391.185 953.042 413.001 979.953 413.001Z" fill="#DCE0ED"/>
<path d="M979.953 393.51C996.1 393.51 1009.19 380.421 1009.19 364.274C1009.19 348.127 996.1 335.037 979.953 335.037C963.807 335.037 950.717 348.127 950.717 364.274C950.717 380.421 963.807 393.51 979.953 393.51Z" fill="#65617D"/>
<path d="M592.378 364.274C592.379 387.302 583.486 409.441 567.557 426.071C551.627 442.7 529.891 452.536 506.884 453.525C483.877 454.514 461.377 446.58 444.079 431.379C426.781 416.178 416.022 394.883 414.046 371.94C413.916 370.489 413.819 369.038 413.776 367.566V367.49C413.732 366.418 413.711 365.346 413.711 364.274C413.719 340.586 423.134 317.872 439.886 301.125C456.639 284.378 479.357 274.97 503.044 274.97C526.732 274.97 549.45 284.378 566.202 301.125C582.954 317.872 592.37 340.586 592.378 364.274V364.274Z" fill="#65617D"/>
<path opacity="0.2" d="M592.378 364.274C592.379 387.302 583.486 409.441 567.557 426.071C551.627 442.7 529.891 452.536 506.884 453.525C483.877 454.514 461.377 446.58 444.079 431.379C426.781 416.178 416.022 394.883 414.046 371.94C413.916 370.489 413.819 369.038 413.776 367.566V367.49C413.732 366.418 413.711 365.346 413.711 364.274C413.719 340.586 423.134 317.872 439.886 301.125C456.639 284.378 479.357 274.97 503.044 274.97C526.732 274.97 549.45 284.378 566.202 301.125C582.954 317.872 592.37 340.586 592.378 364.274V364.274Z" fill="black"/>
<path d="M503.042 413.001C529.953 413.001 551.769 391.185 551.769 364.274C551.769 337.362 529.953 315.546 503.042 315.546C476.13 315.546 454.314 337.362 454.314 364.274C454.314 391.185 476.13 413.001 503.042 413.001Z" fill="#DCE0ED"/>
<path d="M503.042 393.51C519.189 393.51 532.278 380.421 532.278 364.274C532.278 348.127 519.189 335.037 503.042 335.037C486.895 335.037 473.805 348.127 473.805 364.274C473.805 380.421 486.895 393.51 503.042 393.51Z" fill="#65617D"/>
<path d="M1097.15 347.534L1067.35 346.238L1040.13 295.696L944.23 287.92L897.575 348.83L900.167 365.678L893.687 381.229L589.138 383.821V376.045H586.546L583.954 364.382H607.281L590.434 346.238L530.82 295.696C530.82 295.696 428.439 298.288 427.143 295.696C425.847 293.104 432.975 266.537 432.975 266.537L477.038 253.578L627.369 241.914C660.415 189.428 690.222 164.805 690.222 164.805H1076.42L1094.56 258.113V258.334L1097.15 347.534Z" fill="#444053"/>
<path d="M882.024 354.014C882.024 354.014 920.903 281.441 950.71 281.441H1023.28C1023.28 281.441 1041.43 281.441 1049.2 295.696L1079.01 354.014H1055.68C1055.68 354.014 1036.24 299.584 1014.21 298.288C992.18 296.992 954.597 298.288 954.597 298.288C954.597 298.288 941.638 298.288 933.862 313.839C926.086 329.391 899.796 363.267 899.796 363.267C899.796 363.267 871.656 372.158 882.024 354.014Z" fill="#33323D"/>
<path d="M1114 342.351H1065.25L1064.75 381.229L1114 369.566V342.351Z" fill="#33323D"/>
<path d="M409 319.023C409 319.023 411.592 299.584 429.735 291.808L548.963 285.328C548.963 285.328 568.403 286.624 578.77 311.248L612.465 361.79V369.566H574.882C574.882 369.566 556.739 300.88 504.901 303.472H442.695C442.695 303.472 428.439 303.472 423.256 326.799L409 319.023Z" fill="#33323D"/>
<path d="M688.926 172.58H1086.78C1086.78 168.799 1085.28 165.174 1082.61 162.5C1079.94 159.827 1076.31 158.325 1072.53 158.325H703.182C701.31 158.325 699.456 158.694 697.727 159.41C695.997 160.126 694.426 161.176 693.102 162.5C691.778 163.824 690.728 165.395 690.012 167.125C689.295 168.854 688.926 170.708 688.926 172.58Z" fill="#33323D"/>
<path opacity="0.3" d="M774.189 249.042H664.093C662.853 249.042 661.633 248.732 660.543 248.14C659.453 247.549 658.528 246.694 657.852 245.654C657.176 244.614 656.771 243.422 656.673 242.186C656.575 240.95 656.788 239.708 657.291 238.575L674.713 199.377C677.401 193.33 681.785 188.192 687.334 184.586C692.883 180.979 699.358 179.06 705.976 179.06H772.868C774.098 179.06 775.316 179.302 776.452 179.773C777.589 180.244 778.622 180.934 779.492 181.804C780.361 182.674 781.051 183.706 781.522 184.843C781.993 185.979 782.235 187.198 782.235 188.428V240.996C782.235 242.052 782.027 243.099 781.623 244.075C781.218 245.051 780.626 245.938 779.879 246.685C779.131 247.432 778.244 248.025 777.268 248.429C776.292 248.834 775.246 249.042 774.189 249.042Z" fill="#EB171D"/>
<path opacity="0.3" d="M912.771 179.06H816.286C813.226 179.06 810.746 181.54 810.746 184.599V243.502C810.746 246.562 813.226 249.042 816.286 249.042H912.771C915.831 249.042 918.311 246.562 918.311 243.502V184.599C918.311 181.54 915.831 179.06 912.771 179.06Z" fill="#EB171D"/>
<path d="M1094.56 258.113V258.334L927.382 260.705L923.028 164.805H1076.42L1094.56 258.113Z" fill="#33323D"/>
<path opacity="0.3" d="M1059.21 179.06H947.177C944.118 179.06 941.638 181.54 941.638 184.599V243.502C941.638 246.562 944.118 249.042 947.177 249.042H1059.21C1062.27 249.042 1064.75 246.562 1064.75 243.502V184.599C1064.75 181.54 1062.27 179.06 1059.21 179.06Z" fill="#EB171D"/>
<path d="M788.251 273.665H750.3C749.328 273.665 748.54 274.453 748.54 275.425V279.681C748.54 280.653 749.328 281.441 750.3 281.441H788.251C789.223 281.441 790.011 280.653 790.011 279.681V275.425C790.011 274.453 789.223 273.665 788.251 273.665Z" fill="#33323D"/>
<path d="M907.479 273.665H869.528C868.556 273.665 867.768 274.453 867.768 275.425V279.681C867.768 280.653 868.556 281.441 869.528 281.441H907.479C908.451 281.441 909.239 280.653 909.239 279.681V275.425C909.239 274.453 908.451 273.665 907.479 273.665Z" fill="#33323D"/>
<path d="M423.92 465.025C423.921 478.881 418.57 492.203 408.985 502.21C399.4 512.217 386.32 518.136 372.476 518.731C358.632 519.326 345.093 514.552 334.684 505.404C324.275 496.257 317.801 483.444 316.612 469.638C316.534 468.765 316.476 467.891 316.45 467.005V466.96C316.423 466.315 316.41 465.67 316.41 465.025C316.429 450.78 322.1 437.125 332.179 427.059C342.258 416.993 355.921 411.339 370.165 411.339C384.41 411.339 398.072 416.993 408.151 427.059C418.23 437.125 423.902 450.78 423.92 465.025Z" fill="#65617D"/>
<path d="M370.164 494.345C386.357 494.345 399.485 481.218 399.485 465.024C399.485 448.831 386.357 435.704 370.164 435.704C353.97 435.704 340.843 448.831 340.843 465.024C340.843 481.218 353.97 494.345 370.164 494.345Z" fill="#DCE0ED"/>
<path d="M370.164 482.617C379.88 482.617 387.756 474.741 387.756 465.024C387.756 455.308 379.88 447.432 370.164 447.432C360.448 447.432 352.571 455.308 352.571 465.024C352.571 474.741 360.448 482.617 370.164 482.617Z" fill="#65617D"/>
<path d="M228.995 362.942L99.5531 365.548V346.438C100.713 331.08 116.461 325.692 130.835 324.004C142.042 322.732 153.389 323.583 164.281 326.513C191.744 333.784 209.259 335.192 217.86 335.328C219.752 335.357 221.576 336.038 223.024 337.256C224.472 338.474 225.456 340.154 225.809 342.014C226.219 344.196 226.623 346.575 227.001 348.92C227.288 350.758 227.562 352.569 227.809 354.257C228.519 359.15 228.995 362.942 228.995 362.942Z" fill="#65617D"/>
<path d="M332.263 468.497H63.3647C61.2885 468.519 59.2519 467.929 57.5083 466.802C55.7647 465.675 54.3911 464.06 53.5585 462.158C51.532 457.316 54.3664 454.228 57.3897 452.417C63.5768 448.749 68.2669 443.011 70.6297 436.218C73.4966 427.781 76.2984 414.495 77.3996 393.788C78.5333 372.371 86.2871 361.782 94.6663 356.655H94.6728C105.495 350.035 117.361 352.517 117.361 352.517L226.389 353.39C228.329 354.27 230.125 355.442 231.712 356.863C241.427 365.907 227.262 377.713 227.262 377.713C196.853 409.856 219.873 442.434 219.873 442.434H275.661C286.084 442.488 296.277 439.368 304.884 433.488C312.423 428.282 315.342 423.239 316.469 420.19C317.329 417.857 318.202 415.531 319.245 413.276C333.879 381.538 316.228 329.907 308.611 310.601C306.721 305.799 305.451 302.997 305.451 302.997L322.946 301.675L334.009 300.834L334.12 300.828C358.502 342.88 367.566 386.093 370.615 418.111C370.902 421.128 371.136 424.053 371.325 426.862C371.672 432.202 370.919 437.558 369.112 442.595C367.306 447.633 364.484 452.247 360.822 456.15C357.16 460.053 352.736 463.163 347.824 465.287C342.911 467.41 337.615 468.503 332.263 468.497V468.497Z" fill="#EB171D"/>
<path opacity="0.1" d="M227.809 354.257H99.5532V348.92H227.001C227.288 350.758 227.562 352.569 227.809 354.257Z" fill="black"/>
<path opacity="0.1" d="M231.712 356.863H95.7023C95.3485 356.865 94.998 356.794 94.6729 356.655C105.496 350.035 117.361 352.517 117.361 352.517L226.389 353.39C228.33 354.27 230.125 355.441 231.712 356.863Z" fill="black"/>
<path d="M232.846 350.226H48.1153C46.6424 350.226 45.4484 351.42 45.4484 352.893C45.4484 354.366 46.6424 355.56 48.1153 355.56H232.846C234.319 355.56 235.513 354.366 235.513 352.893C235.513 351.42 234.319 350.226 232.846 350.226Z" fill="#DCE0ED"/>
<path opacity="0.1" d="M370.615 418.111C364.419 424.848 359.857 427.5 360.073 420.392C360.724 398.89 322.946 301.675 322.946 301.675L334.12 300.828C358.502 342.88 367.566 386.093 370.615 418.111Z" fill="black"/>
<path opacity="0.1" d="M423.595 459.134C417.177 460.672 409.24 462.236 399.454 463.669C395.818 464.204 391.917 464.716 387.751 465.207C377.763 466.393 366.21 467.429 352.866 468.224C349.087 468.452 345.162 468.658 341.092 468.843C333.469 469.188 325.309 469.453 316.612 469.638L316.449 467.005V466.96C328.601 462.053 347.719 448.963 350.801 414.866C358.48 411.907 366.737 410.75 374.934 411.484C383.132 412.218 391.051 414.823 398.083 419.1C405.115 423.376 411.072 429.209 415.495 436.15C419.918 443.091 422.689 450.954 423.595 459.134Z" fill="black"/>
<path d="M306.318 468.497C306.318 468.497 368.022 461.814 346.78 367.786C346.78 367.786 377.271 395.734 396.235 411.27C415.199 426.805 449 448.221 449 448.221C449 448.221 428.814 467.086 306.318 468.497Z" fill="#EB171D"/>
<path opacity="0.1" d="M306.318 468.497C306.318 468.497 368.022 461.814 346.78 367.786C346.78 367.786 377.271 395.734 396.235 411.27C415.199 426.805 449 448.221 449 448.221C449 448.221 428.814 467.086 306.318 468.497Z" fill="white"/>
<path d="M141.469 518.779C171.157 518.779 195.224 494.713 195.224 465.024C195.224 435.336 171.157 411.27 141.469 411.27C111.781 411.27 87.7141 435.336 87.7141 465.024C87.7141 494.713 111.781 518.779 141.469 518.779Z" fill="#65617D"/>
<path d="M141.469 494.345C157.662 494.345 170.79 481.218 170.79 465.024C170.79 448.831 157.662 435.704 141.469 435.704C125.276 435.704 112.148 448.831 112.148 465.024C112.148 481.218 125.276 494.345 141.469 494.345Z" fill="#DCE0ED"/>
<path d="M141.469 482.617C151.185 482.617 159.062 474.741 159.062 465.024C159.062 455.308 151.185 447.432 141.469 447.432C131.753 447.432 123.876 455.308 123.876 465.024C123.876 474.741 131.753 482.617 141.469 482.617Z" fill="#65617D"/>
<path opacity="0.1" d="M201.74 448.881C201.74 414.167 174.172 386.025 140.166 386.025C106.16 386.025 78.592 414.167 78.592 448.881C78.592 450.346 78.6452 451.798 78.7417 453.238H201.59C201.686 451.798 201.74 450.346 201.74 448.881Z" fill="black"/>
<path d="M199.459 447.798C199.459 414.369 172.913 387.27 140.166 387.27C107.419 387.27 80.8725 414.369 80.8725 447.798C80.8725 449.208 80.9237 450.607 81.0167 451.993H199.315C199.408 450.607 199.459 449.208 199.459 447.798Z" fill="#EB171D"/>
<path opacity="0.1" d="M199.459 447.797C199.459 448.768 199.433 449.732 199.388 450.69C199.368 451.126 199.342 451.556 199.316 451.993H81.0159C80.9899 451.556 80.9638 451.126 80.9442 450.69C80.8986 449.732 80.8726 448.768 80.8726 447.797C80.8726 414.371 107.418 387.272 140.166 387.272C172.914 387.272 199.459 414.371 199.459 447.797Z" fill="white"/>
<path opacity="0.1" d="M199.388 450.69C199.368 451.126 199.342 451.556 199.316 451.993H81.0159C80.9899 451.556 80.9638 451.126 80.9442 450.69H199.388Z" fill="black"/>
<path opacity="0.1" d="M360.017 361.317C363.944 359.541 363.502 350.085 359.03 340.195C354.558 330.305 347.749 323.727 343.822 325.503C339.895 327.279 340.337 336.736 344.81 346.625C349.282 356.515 356.091 363.093 360.017 361.317Z" fill="black"/>
<path d="M360.669 360.666C364.596 358.89 364.154 349.433 359.682 339.543C355.209 329.654 348.401 323.076 344.474 324.852C340.547 326.627 340.989 336.084 345.461 345.974C349.933 355.864 356.742 362.441 360.669 360.666Z" fill="#DCE0ED"/>
<path opacity="0.1" d="M334.009 300.834V311.044H314.136C312.286 311.046 310.438 310.898 308.611 310.601C306.722 305.799 305.451 302.997 305.451 302.997L322.946 301.675L334.009 300.834Z" fill="black"/>
<path d="M334.009 309.74H314.136C296.683 309.74 282.535 296.682 282.535 280.574V277.868C282.535 261.76 296.684 248.702 314.136 248.702L334.009 250.506V309.74Z" fill="#EB171D"/>
<path d="M301.268 265.968C301.268 265.968 313.159 272.321 306.318 283.072C306.318 283.072 297.929 296.837 284.734 295.533L279.929 265.968C279.929 265.968 295.729 264.502 301.268 265.968Z" fill="#EB171D"/>
<path opacity="0.1" d="M296.703 265.394C298.591 265.468 300.438 265.964 302.109 266.845C303.78 267.727 305.232 268.972 306.358 270.489C308.476 273.421 309.738 277.697 306.318 283.072C306.318 283.072 297.929 296.837 284.734 295.533L279.929 265.968C285.505 265.458 291.105 265.266 296.703 265.394V265.394Z" fill="black"/>
<path opacity="0.1" d="M333.358 250.506C335.454 250.506 337.53 250.919 339.467 251.721C341.404 252.523 343.164 253.699 344.646 255.181C346.128 256.664 347.304 258.423 348.106 260.36C348.909 262.297 349.322 264.373 349.322 266.469V293.777C349.322 298.01 347.64 302.071 344.646 305.065C341.652 308.058 337.592 309.74 333.358 309.74V309.74V250.506V250.506Z" fill="black"/>
<path d="M334.009 250.506C338.243 250.506 342.304 252.187 345.297 255.181C348.291 258.175 349.973 262.235 349.973 266.469V293.777C349.973 298.01 348.291 302.071 345.297 305.065C342.304 308.058 338.243 309.74 334.009 309.74V250.506Z" fill="#DCE0ED"/>
<path d="M278.553 297.407C285.844 297.407 291.756 290.216 291.756 281.345C291.756 272.474 285.844 265.282 278.553 265.282C271.261 265.282 265.35 272.474 265.35 281.345C265.35 290.216 271.261 297.407 278.553 297.407Z" fill="#EB171D"/>
<path d="M58 246.771H51V354.771H58V246.771Z" fill="#DCE0ED"/>
<path d="M51 246.771C51 246.771 25 247.771 20 249.771C15 251.771 0 250.771 0 250.771V278.771C0 278.771 17 274.771 26 277.771C35 280.771 54 273.771 54 273.771L51 246.771Z" fill="#DCE0ED"/>
</g>
<defs>
<clipPath id="clip0">
<rect width="1114" height="593.541" fill="white"/>
</clipPath>
</defs>
</svg>
